:SAMPLES-PER-SECOND 30
:FULLY-SPECIFIED
:DEGREES
396
root  3.76382 40.0559 -67.0323 178.996 2.66008 179.3
RightUpLeg  -2.4574 -0.613295 -0.439182
RightLeg  4.1526 1.95316 -0.888374
RightFoot  -0.792548 -0.280284 2.49137
RightToes  -1.16415e-010 -3.18055e-015 -2.98177e-016
Spine  5.03112 -0.179082 -0.0314825
Spine1  4.16435 -0.102278 -0.0974242
HEad  2.99594 -3.39711 -2.84589
LeftShoulder1  -3.88251e-019 9.70628e-020 -3.87848e-018
LeftArm  -20.9821 53.8449 -57.7811
LeftForeArm  3.83597 -13.388 -0.17797
LeftHand  -1.81523 -5.18415 20.7488
RightShoulder  6.16054 9.75337 30.0282
RightArm  5.32181 -40.1057 12.6341
RightForeArm  15.9096 14.2039 -7.49222
RightHand  -0.637109 0.738173 -11.8341
LeftUpLeg  -2.27021 -4.37552 -4.88711
LeftLeg  3.83456 6.93572 3.33383
LeftFoot  -1.06495 -0.0592936 0.559129
LeftToes  1.69338e-011 3.79281e-011 -2.20049e-011
397
root  3.73576 40.0567 -67.0184 179.025 2.56793 179.333
RightUpLeg  -2.38522 -0.696542 -0.491607
RightLeg  3.97382 1.94428 -0.770349
RightFoot  -0.750354 -0.291343 2.60899
RightToes  -1.16415e-010 -3.18055e-015 -2.98177e-016
Spine  4.97801 -0.297568 0.0424601
Spine1  4.04221 -0.215761 -0.109405
HEad  1.84911 -2.83074 -2.14445
LeftShoulder1  -3.88251e-019 9.70628e-020 -3.87848e-018
LeftArm  -20.9721 53.7552 -57.8356
LeftForeArm  3.99549 -12.7569 -0.270504
LeftHand  -1.7361 -4.79514 20.6373
RightShoulder  6.19582 9.78543 30.1535
RightArm  6.40845 -40.2916 12.3351
RightForeArm  14.7194 15.2374 -7.7866
RightHand  -0.654753 0.708779 -12.2189
LeftUpLeg  -2.35011 -4.37573 -4.87783
LeftLeg  3.85449 6.82188 3.28652
LeftFoot  -1.02203 -0.0811235 0.788537
LeftToes  1.69338e-011 3.79281e-011 -2.20049e-011
398
root  3.71427 40.0568 -67.0029 178.995 2.59566 179.401
RightUpLeg  -2.23734 -0.704619 -0.476404
RightLeg  3.73088 1.97098 -0.667292
RightFoot  -0.66917 -0.295004 2.65205
RightToes  -1.16415e-010 -3.18055e-015 -2.98177e-016
Spine  4.98443 -0.334894 0.192366
Spine1  3.97709 -0.253579 -0.0969416
HEad  1.18204 -2.6273 -2.39919
LeftShoulder1  -3.88251e-019 9.70628e-020 -3.87848e-018
LeftArm  -20.9748 53.6521 -57.9851
LeftForeArm  3.71745 -12.1893 -0.424015
LeftHand  -1.72529 -4.6115 20.8896
RightShoulder  6.19129 9.80073 30.0965
RightArm  7.50965 -40.4247 12.1354
RightForeArm  13.6393 16.213 -8.18277
RightHand  -0.638489 0.506925 -12.3069
LeftUpLeg  -2.38538 -4.34181 -4.83029
LeftLeg  3.97003 6.82362 3.31729
LeftFoot  -1.0929 -0.0767506 0.742582
LeftToes  1.69338e-011 3.79281e-011 -2.20049e-011
399
root  3.69427 40.0546 -66.9842 178.95 2.80058 179.382
RightUpLeg  -2.23231 -0.701423 -0.508118
RightLeg  3.69306 2.1569 -0.679595
RightFoot  -0.665525 -0.296777 2.6764
RightToes  -1.16415e-010 -3.18055e-015 -2.98177e-016
Spine  5.00078 -0.29026 0.22661
Spine1  3.98883 -0.221834 -0.0206868
HEad  0.885499 -2.76707 -3.30356
LeftShoulder1  -3.88251e-019 9.70628e-020 -3.87848e-018
LeftArm  -21.1028 53.6427 -58.1977
LeftForeArm  3.31876 -11.914 -0.514347
LeftHand  -1.75761 -4.67411 21.1364
RightShoulder  6.16927 9.7989 29.9802
RightArm  8.00874 -40.3852 12.1669
RightForeArm  13.1709 16.9134 -8.6378
RightHand  -0.627314 0.418695 -12.2695
LeftUpLeg  -2.3579 -4.35527 -4.87264
LeftLeg  4.02312 7.07733 3.34101
LeftFoot  -1.22203 -0.053645 0.499771
LeftToes  1.69338e-011 3.79281e-011 -2.20049e-011
400
root  3.67523 40.0484 -66.9633 178.961 3.0768 179.272
RightUpLeg  -2.44884 -0.767266 -0.636209
RightLeg  3.91649 2.48904 -0.737772
RightFoot  -0.779645 -0.304495 2.76173
RightToes  -1.16415e-010 -3.18055e-015 -2.98177e-016
Spine  4.96719 -0.235318 0.252331
Spine1  4.01058 -0.147311 -0.0969276
HEad  0.800627 -3.05208 -4.40943
LeftShoulder1  -3.88251e-019 9.70628e-020 -3.87848e-018
LeftArm  -21.2687 53.747 -58.2895
LeftForeArm  3.24099 -12.0255 -0.45154
LeftHand  -1.74816 -4.67715 21.0192
RightShoulder  6.14878 9.78781 29.8916
RightArm  7.79063 -40.1791 12.4038
RightForeArm  13.3976 17.2184 -8.96024
RightHand  -0.656955 0.620715 -12.43
LeftUpLeg  -2.36404 -4.42958 -5.00817
LeftLeg  4.01025 7.45751 3.33602
LeftFoot  -1.31364 -0.0376276 0.331459
LeftToes  1.69338e-011 3.79281e-011 -2.20049e-011
401
root  3.6643 40.0433 -66.9479 179.005 3.2916 179.195
RightUpLeg  -2.66869 -0.842231 -0.740162
RightLeg  4.13309 2.77697 -0.74481
RightFoot  -0.906496 -0.314918 2.87422
RightToes  -1.16415e-010 -3.18055e-015 -2.98177e-016
Spine  4.88497 -0.222067 0.392935
Spine1  4.01727 -0.0808811 -0.341183
HEad  0.933545 -3.39447 -5.49126
LeftShoulder1  -3.88251e-019 9.70628e-020 -3.87848e-018
LeftArm  -21.313 53.9062 -58.1613
LeftForeArm  3.63032 -12.3905 -0.291735
LeftHand  -1.73679 -4.72004 20.7988
RightShoulder  6.12932 9.76901 29.8246
RightArm  7.61142 -39.8385 12.6218
RightForeArm  13.6069 17.2837 -9.04312
RightHand  -0.705778 0.896344 -12.7881
LeftUpLeg  -2.43052 -4.4624 -5.08847
LeftLeg  4.05948 7.72128 3.33936
LeftFoot  -1.38394 -0.0325422 0.278023
LeftToes  1.69338e-011 3.79281e-011 -2.20049e-011
402
root  3.66449 40.0416 -66.9454 179.023 3.39496 179.204
RightUpLeg  -2.71059 -0.877306 -0.752976
RightLeg  4.16191 2.91392 -0.691706
RightFoot  -0.972579 -0.321287 2.94433
RightToes  -1.16415e-010 -3.18055e-015 -2.98177e-016
Spine  4.77075 -0.237895 0.541043
Spine1  4.04715 -0.0629702 -0.492732
HEad  1.21714 -3.80135 -6.30192
LeftShoulder1  -3.88251e-019 9.70628e-020 -3.87848e-018
LeftArm  -21.2263 54.0356 -57.8905
LeftForeArm  4.17737 -12.7839 -0.150861
LeftHand  -1.81546 -5.12916 20.8599
RightShoulder  6.11367 9.73914 29.8015
RightArm  8.07303 -39.3289 12.5768
RightForeArm  13.1717 17.3431 -8.94339
RightHand  -0.725574 0.936193 -13.0659
LeftUpLeg  -2.48554 -4.40957 -5.05178
LeftLeg  4.1656 7.77833 3.33851
LeftFoot  -1.45718 -0.0298317 0.249542
LeftToes  1.69338e-011 3.79281e-011 -2.20049e-011
